<?xml version="1.0" standalone="no"?><!DOCTYPE svg PUBLIC "-//W3C//DTD SVG 1.1//EN" "http://www.w3.org/Graphics/SVG/1.1/DTD/svg11.dtd"><svg t="1766908090930" class="icon" viewBox="0 0 1024 1024" version="1.1" xmlns="http://www.w3.org/2000/svg" p-id="23291" xmlns:xlink="http://www.w3.org/1999/xlink" width="200" height="200"><path d="M815.006751 253.054332c-31.223897 108.82296-111.740603 181.303352-180.023684 161.69884s-97.76663-123.206428-66.542732-232.029389S680.232125 1.420431 748.310459 20.61545s97.971376 123.615922 66.696292 232.438882zM334.619412 1.062124c-69.921055 11.158704-112.09891 110.768056-94.18356 222.559846S329.50074 417.005387 399.524169 405.89787s112.150097-110.768056 94.183559-222.559846S404.642841-10.09658 334.619412 1.062124zM67.680682 309.001414c-65.007131 25.593359-87.017419 123.411175-49.190435 218.055415s121.107773 150.488948 186.114903 124.690842 87.017419-123.411175 49.190436-218.106601S132.636626 283.203309 67.680682 309.001414zM959.353293 378.92247c-64.290517-27.43608-149.004533 26.309973-189.390853 119.981664s-20.474687 191.847815 43.66227 219.232709 149.004533-26.309973 189.390853-119.981664 20.628247-191.694255-43.66227-219.232709z m-152.178109 586.906897c79.339411-83.997403-137.078028-431.504025-295.859225-438.721352-165.947337-7.524447-418.553785 366.804014-331.94586 453.10482s245.337935 14.383467 331.94586 0 173.420597 115.323674 295.859225-14.383468z" fill="#FF8130" p-id="23292"></path></svg>