<?xml version="1.0" standalone="no"?><!DOCTYPE svg PUBLIC "-//W3C//DTD SVG 1.1//EN" "http://www.w3.org/Graphics/SVG/1.1/DTD/svg11.dtd"><svg t="1766908010167" class="icon" viewBox="0 0 1024 1024" version="1.1" xmlns="http://www.w3.org/2000/svg" p-id="19527" xmlns:xlink="http://www.w3.org/1999/xlink" width="200" height="200"><path d="M1008 496a144 144 0 1 0-176 140.32v84.64a238.88 238.88 0 0 1-462.4 84.48A313.44 313.44 0 0 0 640 499.68V221.76A95.04 95.04 0 0 0 544 128h-64V32a32 32 0 0 0-64 0v256a32 32 0 0 0 64 0v-96h64a30.88 30.88 0 0 1 32 29.76v277.92c0 135.52-114.88 245.76-256 245.76S64 635.2 64 499.68V221.76A30.88 30.88 0 0 1 96 192h64v96a32 32 0 0 0 64 0V32a32 32 0 0 0-64 0v96H96a95.04 95.04 0 0 0-96 93.76v277.92C0 664.96 134.56 800 304 808.64a302.88 302.88 0 0 0 592-87.68v-84.64A144 144 0 0 0 1008 496z m-144 80a80 80 0 1 1 80-80 80 80 0 0 1-80 80z" p-id="19528" fill="#ed734a"></path></svg>