<?xml version="1.0" standalone="no"?><!DOCTYPE svg PUBLIC "-//W3C//DTD SVG 1.1//EN" "http://www.w3.org/Graphics/SVG/1.1/DTD/svg11.dtd"><svg t="1766830300424" class="icon" viewBox="0 0 1024 1024" version="1.1" xmlns="http://www.w3.org/2000/svg" p-id="7333" xmlns:xlink="http://www.w3.org/1999/xlink" width="200" height="200"><path d="M904.704 674.304c0-18.944-15.36-34.304-34.304-34.304h-16.896V196.096c0-56.32-46.08-102.4-102.4-102.4H272.896c-56.32 0-102.4 46.08-102.4 102.4V640H153.6c-18.944 0-34.304 15.36-34.304 34.304V896a34.304 34.304 0 0 0 68.608 0v-23.04c10.752 4.096 22.016 6.144 34.304 6.144h580.096c11.776 0 23.552-2.048 34.304-6.144v23.04a34.304 34.304 0 0 0 68.608 0v-102.4c0-2.048 0-4.096-0.512-6.144 0.512-3.584 0.512-7.168 0.512-10.752v-102.4z m-665.6-478.208c0-18.944 15.36-34.304 34.304-34.304h477.696c18.944 0 34.304 15.36 34.304 34.304v170.496h-51.2v-102.4c0-37.888-30.72-68.096-68.096-68.096h-68.096c-37.888 0-68.096 30.72-68.096 68.096v102.4h-34.304v-102.4c0-37.888-30.72-68.096-68.096-68.096H358.4c-37.888 0-68.096 30.72-68.096 68.096v102.4h-51.2V196.096zM665.6 367.104h-68.096v-102.4H665.6v102.4z m-239.104 0H358.4v-102.4h68.096v102.4zM239.104 435.2h546.304v204.8h-51.2v-102.4c0-37.888-30.72-68.096-68.096-68.096h-68.096c-37.888 0-68.096 30.72-68.096 68.096v102.4h-34.304v-102.4c0-37.888-30.72-68.096-68.096-68.096H358.4c-37.888 0-68.096 30.72-68.096 68.096v102.4h-51.2V435.2z m426.496 204.8h-68.096v-102.4H665.6v102.4z m-239.104 0H358.4v-102.4h68.096v102.4z m375.808 170.496H221.696c-18.944 0-34.304-15.36-34.304-34.304v-68.096h648.704v68.096c0 18.944-15.36 34.304-33.792 34.304z" fill="#ed734a" p-id="7334"></path></svg>