<?xml version="1.0" standalone="no"?><!DOCTYPE svg PUBLIC "-//W3C//DTD SVG 1.1//EN" "http://www.w3.org/Graphics/SVG/1.1/DTD/svg11.dtd"><svg t="1766908028013" class="icon" viewBox="0 0 1024 1024" version="1.1" xmlns="http://www.w3.org/2000/svg" p-id="20722" xmlns:xlink="http://www.w3.org/1999/xlink" width="200" height="200"><path d="M828.601108 64.157538l128.1024 128.110277a19.692308 19.692308 0 0 1 0 27.848862l-5.568985 5.568985a19.696246 19.696246 0 0 1-27.844923 0L795.175385 97.579323a19.692308 19.692308 0 0 1 0-27.848861l5.572923-5.568985a19.696246 19.696246 0 0 1 27.844923 0z" fill="#ed734a" p-id="20723"></path><path d="M870.376369 144.915692l0.779816 0.779816 4.332307 4.332307 0.4608 0.4608c7.687877 7.687877 8.546462 19.298462 1.918031 25.930831l-0.031508 0.031508-0.504123 0.504123-3.339815 3.339815-2.268554 2.268554-0.854646 0.854646-1.858954 1.858954-7.869046 7.869046-25.501539 25.501539-11.933538 11.933538-3.454031 3.454031-8.617354 8.613415-14.9504 14.954339-16.7424 16.7424 2.808123-2.804185-33.421784-33.425723 3.335877-3.335877 15.458461-15.454523 4.997908-5.001846 27.419569-27.419569 5.001846-4.997908 38.912-38.912c6.624492-6.628431 18.235077-5.765908 25.922954 1.921969zM616.944246 125.428185l278.488616 278.492553a19.692308 19.692308 0 0 1 0 27.848862l-5.565047 5.568985a19.696246 19.696246 0 0 1-27.848861 0l-278.492554-278.488616a19.692308 19.692308 0 0 1 0-27.848861l5.568985-5.572923a19.696246 19.696246 0 0 1 27.848861 0zM500.432738 712.203815l-1.575384-1.575384-7.632739-7.632739-1.476923-1.476923-2.898707-2.898707-1.425723-1.425724-10.775631-10.77563-2.524554-2.524554-2.4576-2.4576-6.959262-6.959262-20.259446-20.259446-2.796307-2.796308-1.918031-1.91803-1.193354-1.193354-7.396431-7.396431-0.543508-0.543508-1.91803-1.91803a19.692308 19.692308 0 1 0-27.813416 27.884307l0.098462 0.098462 0.173292 0.173292 1.362708 1.362708 0.512 0.512 2.327631 2.327631 1.25243 1.25243 6.549662 6.549662 3.454031 3.454031 20.259446 20.259446 6.959261 6.959261 2.4576 2.4576 2.520616 2.520616 7.983261 7.983261 8.593723 8.597662 4.529231 4.529231 9.515323 9.511384-0.464738-0.4608-15.320616 15.324554-3.81243 3.812431-5.387816 5.387815-3.363446 3.363446-6.998646 6.998647-3.611569 3.60763-8.444062 8.448-3.497354 3.493416a47.174892 47.174892 0 0 1-13.217477 41.066338l-0.732553 0.732554-0.9728 0.9728-0.519877 0.519877-0.212677 0.212677c-18.455631 18.459569-48.380062 18.459569-66.835693 0l-39.034092-39.034092-4.285046-4.285047-4.411077-4.411077-4.517415-4.517415-9.29477-9.298708-4.753723-4.749784-36.036923-36.036923-6.947446-6.947446-19.369354-19.373293-3.906954-3.906954-17.888492-17.884553-1.725046-1.728985-3.741539-3.741539-1.25243-1.25243-2.851446-2.851446-0.338708-0.33477-0.980677-0.984615-0.189046-0.189046c-18.459569-18.451692-18.459569-48.376123 0-66.827816l0.098461-0.1024 1.283939-1.287877 0.322954-0.319015 0.732553-0.736492a47.198523 47.198523 0 0 1 41.070277-13.221416l2.134647-2.126769 2.111015-2.114954 6.573292-6.573292 3.4816-3.4816 84.046769-84.046769 10.184862-10.1888 37.391754-37.391754 38.927754-38.927754 11.193107-11.189169 13.930339-13.934277 118.559508-118.563446 3.233476-3.229539 4.655262-4.655261 8.566154-8.570093 3.899077-3.895138 4.765538-4.765538 11.004062-11.008 0.803446-0.799508 1.457231-1.457231 1.819569-1.819569 2.623015-2.623016 0.07877-0.082707a19.696246 19.696246 0 0 1 27.8528 0l6.8608 6.8608 2.658461 2.658461 8.436185 8.436185 11.433354 11.433354 7.904492 7.904492 4.430769 4.434708 4.580431 4.580431 6.632369 6.62843 10.338462 10.338462 17.880615 17.880615 5.175138 5.175139 17.163816 17.163815 10.043077 10.043077 12.819692 12.819692 4.580431 4.580431 4.430769 4.430769 7.904492 7.904493 9.936739 9.936738 7.955692 7.955692 1.008246 1.012185 2.493046 2.493046 0.578954 0.575016 7.416123 7.420061a19.696246 19.696246 0 0 1 0 27.8528l-0.441107 0.441108-1.827446 1.827446-10.279385 10.283323-2.284308 2.280369-8.637046 8.640985-3.832123 3.828184-4.076308 4.080247-13.607384 13.603446-3.284677 3.284677-3.375262 3.375261-3.461907 3.465846-1.760493 1.760493-3.587938 3.584-1.823508 1.823507-3.702154 3.702154-1.882584 1.882585-5.754093 5.754092-7.916307 7.916308-4.052677 4.056615-4.115693 4.111754-4.174769 4.174769-8.518892 8.518893-6.522092 6.522092-8.73157 8.731569-0.063015 0.059077-1.161846-1.161846-9.412923-9.412923-4.478031-4.478031-7.120739-7.120738-9.255384-9.251447-9.546831-9.550769-23.5008-23.5008-3.7888-3.784861-2.686031-2.686031-0.953107-0.957046-0.886154-0.886154-1.205169-1.201231-1.047631-1.047631-0.6144-0.6144-0.279631-0.283569-0.744369-0.740431-1.024-1.024-0.200862-0.2048-0.078769-0.078769-0.1024-0.098461-0.031508-0.035447a19.692308 19.692308 0 1 0-27.431384 28.266339l0.43323 0.433231 0.177231 0.181169 0.4096 0.4096 0.232369 0.228431 0.512 0.512 0.578954 0.578954 0.645908 0.649846 1.102769 1.102769 2.174031 2.170092 3.761231 3.761231 5.316923 5.320862 21.381908 21.377969 7.057723 7.061661 6.352738 6.352739 2.6624 2.658461 2.729354 2.729354 7.120738 7.120739 1.472985 1.476923 3.001108 3.001107 1.528123 1.524185 7.888738 7.888738 1.161846 1.161847-19.495384 19.487507-5.947077-5.943138-3.103508-3.103508-10.326646-10.326646-2.796308-2.796308-7.979323-7.979323-2.524554-2.524554-2.4576-2.4576-6.959261-6.955323-5.328739-5.332677-14.190277-14.186338-3.536738-3.540677-1.299692-1.295754-4.986093-4.986092-0.9216-0.9216-5.761969-5.765908a19.692308 19.692308 0 1 0-27.844923 27.844923l-0.003938 0.003939 0.543507 0.547446 0.3072 0.3072 0.59077 0.590769 0.472615 0.472615 2.213415 2.209477 0.783754 0.787693 0.850708 0.850707 0.9216 0.9216 4.990031 4.986093 1.295753 1.299692 3.536739 3.536738 3.966031 3.966031 9.208123 9.208123 5.246031 5.246031 6.852923 6.852923 2.426092 2.422154 33.914092 33.918031-33.417846 33.421784-4.371692-4.371692-4.678893-4.682831-3.036553-3.032615-2.9696-2.9696-4.320493-4.324431-6.864738-6.864738-3.914831-3.914831-3.761231-3.757292-7.057723-7.061662-6.447261-6.447261-12.654277-12.654277-1.536-1.536-4.836431-4.832493-2.942031-2.94203-3.398892-3.402831-1.921969-1.921969-0.945231-0.945231-1.4336-1.4336-0.6144-0.610462-0.2048-0.2048-0.074831-0.078769-0.1024-0.1024-0.035446-0.035446a19.692308 19.692308 0 1 0-27.813415 27.884308l0.1024 0.1024 0.078769 0.078769 0.200861 0.2048 0.12997 0.126031 0.3072 0.3072 1.61083 1.614769 0.6144 0.610461 2.686031 2.686031 0.9216 0.9216 3.170462 3.170462 1.81563 1.819569 4.096 4.092061 7.286154 7.290093 4.647385 4.647384 8.325908 8.32197 8.176246 8.180184 3.761231 3.757292 3.91483 3.914831 6.864739 6.864739 1.421784 1.425723 4.375631 4.371692 4.529231 4.529231 3.103508 3.103508 1.575384 1.575384 4.371693 4.371692-38.99077 38.99077z" fill="#ed734a" p-id="20724"></path><path d="M232.629169 754.817969l33.417846 33.417846-172.662153 172.666093-33.421785-33.417846z" fill="#ed734a" p-id="20725"></path><path d="M59.5968 962.181908l1.358769-33.839262 32.476554 32.480492z" fill="#ed734a" p-id="20726"></path></svg>