<?xml version="1.0" standalone="no"?><!DOCTYPE svg PUBLIC "-//W3C//DTD SVG 1.1//EN" "http://www.w3.org/Graphics/SVG/1.1/DTD/svg11.dtd"><svg t="1766908661169" class="icon" viewBox="0 0 1024 1024" version="1.1" xmlns="http://www.w3.org/2000/svg" p-id="24420" xmlns:xlink="http://www.w3.org/1999/xlink" width="200" height="200"><path d="M464.384 160.768c0 53.76 43.52 97.28 97.28 97.28s97.28-43.52 97.28-97.28-43.52-97.28-97.28-97.28-97.28 43.52-97.28 97.28zM762.368 473.088c-48.128-13.312-109.568-46.08-136.704-121.344-27.136-75.264-90.624-86.528-138.752-86.528s-204.8 112.64-204.8 112.64c-32.768 28.672-60.416 187.904-28.16 195.584s36.352-44.032 55.808-103.936 109.568-99.84 109.568-99.84 5.632 71.168-11.776 111.616-32.768 82.944-42.496 178.688c-9.728 96.256-46.08 105.984-109.568 180.736-63.488 75.264-17.408 109.568 11.776 105.984 28.672-4.096 169.472-161.792 184.832-201.728 15.36-40.448 19.456-107.52 19.456-107.52l63.488 53.76c63.488 53.76 67.072 132.608 86.528 223.232 19.456 90.624 67.072 27.136 67.072-13.312s8.704-158.72-28.16-204.8c-36.352-46.08-107.52-99.84-107.52-152.064s34.816-107.52 34.816-107.52c9.728 48.128 96.256 88.576 161.792 98.304 65.024 9.216 60.928-48.128 12.8-61.952z" fill="#ed734a" p-id="24421"></path></svg>