<?xml version="1.0" standalone="no"?><!DOCTYPE svg PUBLIC "-//W3C//DTD SVG 1.1//EN" "http://www.w3.org/Graphics/SVG/1.1/DTD/svg11.dtd"><svg t="1766907947955" class="icon" viewBox="0 0 1024 1024" version="1.1" xmlns="http://www.w3.org/2000/svg" p-id="18421" xmlns:xlink="http://www.w3.org/1999/xlink" width="200" height="200"><path d="M516.5 181.4c-26.2-23.6-63.1-32.7-96.8-22.1-83.1 26.2-143.4 103.9-143.4 195.7v296.9c0 22.8 14.1 42.3 34.1 50.3v97.4c0 39.4-32 71.4-71.4 71.4-39.4 0-71.4-32-71.4-71.4V414.5c0-11.1-9-20-20-20s-20 9-20 20v385.1c0 61.5 50 111.5 111.5 111.5 61.4 0 111.5-50 111.5-111.5v-97.4c20-8 34.1-27.5 34.1-50.3V535.8c11.2 6 23 11 35.2 14.9 33.6 10.6 70.5 1.4 96.8-22.1 21.4-19.3 33.7-46.7 33.7-75.5V257c-0.2-28.8-12.5-56.3-33.9-75.6z" fill="#ed734a" p-id="18422"></path><path d="M516.5 181.4c-12.4-11.1-27.2-18.7-42.8-22.9v392.8c15.6-4.1 30.5-11.7 42.8-22.8 21.4-19.3 33.7-46.7 33.7-75.5V257c0-28.8-12.3-56.3-33.7-75.6zM607.4 268.9c-1 0-2-0.1-3.1-0.4-7-1.9-11-2.8-11.1-2.8-6.5-1.5-10.5-7.9-9.1-14.4 1.5-6.5 7.6-10.7 14.4-9.1 0 0 4.2 0.9 11.9 3 6.4 1.7 10.2 8.3 8.5 14.7-1.3 5.4-6.2 9-11.5 9zM803.2 344c-1.8 0-3.6-0.4-5.4-1.3-7.3-3.6-14.5-7.1-21.6-10.5-6-2.8-8.6-10-5.8-16 2.9-6 10.1-8.6 16-5.7 7.2 3.4 14.6 7 22 10.7 5.9 3 8.4 10.2 5.4 16.1-1.9 4.3-6.2 6.7-10.6 6.7z m-96-42.4c-1.4 0-2.9-0.3-4.3-0.8-7.8-3-15.3-5.8-22.5-8.4-6.2-2.3-9.5-9.2-7.2-15.4 2.3-6.3 9.1-9.5 15.4-7.2 7.3 2.7 14.9 5.5 22.9 8.6 6.2 2.4 9.3 9.3 6.9 15.5-1.8 4.8-6.4 7.7-11.2 7.7zM884.5 389.7c-2.2 0-4.4-0.6-6.4-1.9l-12.2-7.6c-5.6-3.5-7.4-10.9-4-16.5 3.5-5.7 11-7.4 16.6-3.9l12.5 7.8c5.6 3.5 7.3 11 3.8 16.6-2.5 3.5-6.3 5.5-10.3 5.5zM607.2 345.8c-1.3 0-2.5-0.2-3.8-0.6-6.7-2.3-10.5-3.3-10.7-3.4-6.4-1.8-10.1-8.4-8.3-14.8 1.8-6.4 8.3-10.1 14.8-8.4 0 0 4.3 1.2 11.9 3.7 6.3 2.1 9.7 8.9 7.6 15.2-1.8 5.1-6.5 8.3-11.5 8.3zM810.4 456.1c-2.6 0-5.2-0.8-7.5-2.6-6.9-5.5-14-10.8-20.9-15.8-5.4-3.9-6.6-11.4-2.7-16.8 3.9-5.4 11.4-6.6 16.8-2.7 7.3 5.2 14.6 10.7 21.8 16.5 5.2 4.1 6.1 11.7 2 16.9-2.4 3-5.9 4.5-9.5 4.5z m-97-63.5c-1.9 0-3.9-0.5-5.7-1.4-8.1-4.3-15.9-8.4-23.4-12.1-5.9-3-8.4-10.2-5.4-16.1 2.9-5.9 10.1-8.3 16.1-5.4 7.8 3.9 15.8 8 24.2 12.5 5.8 3.2 8 10.4 4.9 16.3-2.3 3.9-6.4 6.2-10.7 6.2zM884.5 525.7c-3.3 0-6.7-1.4-9-4.1-2.6-2.9-5.2-5.9-7.9-8.7-4.5-4.9-4.3-12.5 0.6-17 4.9-4.5 12.5-4.3 17 0.6 2.8 3 5.6 6.1 8.3 9.2 4.4 5 4 12.6-1.1 17-2.2 2-5.1 3-7.9 3z" fill="#ed734a" p-id="18423"></path><path d="M606.4 424.8c-2 0-4-0.5-5.9-1.6-6.3-3.5-9.9-5.4-10-5.5-5.9-3-8.3-10.3-5.2-16.2 3-5.9 10.2-8.3 16.2-5.2 0 0 4 2 10.9 5.9 5.8 3.3 7.8 10.6 4.5 16.4-2.3 4-6.4 6.2-10.5 6.2zM825.5 616.8c-3.8 0-7.6-1.8-9.9-5.2-4.1-6.1-8.5-12-12.9-17.8-4-5.3-3-12.8 2.3-16.8s12.8-3 16.9 2.3c4.7 6.1 9.2 12.4 13.6 18.8 3.7 5.5 2.3 13-3.2 16.7-2.1 1.3-4.5 2-6.8 2z m-63.1-74.7c-3.1 0-6.1-1.2-8.5-3.5-5.3-5.2-10.6-10.4-16-15.3-4.9-4.5-5.2-12.1-0.7-17s12.1-5.2 17-0.7c5.6 5.1 11.1 10.4 16.6 15.9 4.7 4.7 4.8 12.3 0.1 17-2.3 2.4-5.4 3.6-8.5 3.6z m-74.3-63.6c-2.5 0-5-0.8-7.2-2.4-6.2-4.6-12.2-9-18-13.1-5.4-3.8-6.7-11.3-2.9-16.7 3.8-5.4 11.3-6.7 16.7-2.9 6 4.2 12.2 8.7 18.6 13.5 5.3 4 6.4 11.5 2.4 16.8-2.3 3.1-5.9 4.8-9.6 4.8zM866.4 694c-4.9 0-9.4-3-11.3-7.8-1.3-3.6-2.8-7.3-4.3-10.8-2.5-6.1 0.4-13.1 6.5-15.7 6-2.6 13.1 0.4 15.7 6.5 1.6 3.8 3.1 7.7 4.6 11.5 2.3 6.2-0.8 13.1-7 15.5-1.3 0.6-2.8 0.8-4.2 0.8z" fill="#ed734a" p-id="18424"></path><path d="M604.7 493.9c-2.9 0-5.9-1.1-8.2-3.2-5.2-4.9-8.3-7.5-8.4-7.6-5-4.3-5.6-11.9-1.3-16.9 4.3-5.1 12-5.6 16.9-1.3 0 0 3.4 2.9 9.2 8.3 4.9 4.5 5.1 12.1 0.5 17-2.3 2.4-5.5 3.7-8.7 3.7zM780.9 775.4c-5.4 0-10.4-3.7-11.7-9.3-1.9-8.2-4.1-16.2-6.6-24.2-2-6.3 1.6-13.1 7.9-15 6.3-2.1 13.1 1.6 15 7.9 2.6 8.5 5 17.1 7 25.7 1.5 6.5-2.5 12.9-8.9 14.5-0.9 0.3-1.8 0.4-2.7 0.4z m-40-104.5c-4.3 0-8.5-2.3-10.6-6.4-4-7.6-8.1-15-12.3-22.2-3.4-5.7-1.4-13.1 4.3-16.5 5.7-3.2 13.1-1.4 16.4 4.3 4.4 7.5 8.7 15.2 12.8 23.1 3.1 5.9 0.8 13.1-5 16.2-1.8 1.1-3.6 1.5-5.6 1.5z m-61-94c-3.6 0-7.2-1.6-9.5-4.7-5.4-7-10.7-13.6-16-19.8-4.2-5.1-3.6-12.7 1.5-16.9 5-4.2 12.7-3.6 16.9 1.5 5.4 6.5 11 13.3 16.5 20.6 4.1 5.2 3.1 12.8-2.2 16.8-2 1.7-4.6 2.5-7.2 2.5zM789.7 873.3h-0.8c-6.6-0.5-11.6-6.2-11.2-12.8 0.2-3.8 0.4-7.6 0.5-11.4 0.1-6.6 5.5-11.8 12-11.8h0.2c6.7 0.1 11.9 5.6 11.8 12.2-0.1 4.2-0.3 8.4-0.6 12.6-0.4 6.4-5.7 11.2-11.9 11.2z" fill="#ed734a" p-id="18425"></path></svg>