<?xml version="1.0" standalone="no"?><!DOCTYPE svg PUBLIC "-//W3C//DTD SVG 1.1//EN" "http://www.w3.org/Graphics/SVG/1.1/DTD/svg11.dtd"><svg t="1766735538316" class="icon" viewBox="0 0 1024 1024" version="1.1" xmlns="http://www.w3.org/2000/svg" p-id="9234" xmlns:xlink="http://www.w3.org/1999/xlink" width="200" height="200"><path d="M384 256a128 128 0 1 1 256 0H384zM298.666667 256H170.666667a42.666667 42.666667 0 0 0-42.666667 42.666667v597.333333a42.666667 42.666667 0 0 0 42.666667 42.666667h682.666666a42.666667 42.666667 0 0 0 42.666667-42.666667V298.666667a42.666667 42.666667 0 0 0-42.666667-42.666667h-128A213.333333 213.333333 0 0 0 298.666667 256z m85.333333 170.666667a128 128 0 1 0 256 0h85.333333a213.333333 213.333333 0 0 1-426.666666 0h85.333333z" fill="#38c771" p-id="9235"></path></svg>