<?xml version="1.0" standalone="no"?><!DOCTYPE svg PUBLIC "-//W3C//DTD SVG 1.1//EN" "http://www.w3.org/Graphics/SVG/1.1/DTD/svg11.dtd"><svg t="1766907917280" class="icon" viewBox="0 0 1024 1024" version="1.1" xmlns="http://www.w3.org/2000/svg" p-id="17116" xmlns:xlink="http://www.w3.org/1999/xlink" width="200" height="200"><path d="M395.716465 453.536744l-69.131907 42.150698-36.768744-22.075535c-6.525023-19.57507-28.91014-37.745116-67.155349-54.39107L120.736744 374.593488C43.889116 340.944372 5.477209 299.293767 5.477209 249.594047c0-26.433488 9.906605-48.818605 29.672186-67.155349 19.765581-18.289116 43.698605-27.433674 71.79907-27.433675 40.197953 0 75.490233 13.573953 105.876837 40.698047 30.077023 27.100279 45.127442 58.653767 45.127442 94.589023 0 2.619535-0.666791 11.597395-1.976558 26.957395l-0.476279 11.287814c-0.666791 7.191814-0.976372 12.573767-0.976372 16.169675 0 23.528186 18.598698 43.79386 55.867535 60.797023 6.525023 3.262512 12.907163 6.667907 19.122604 10.263814l66.178977 37.76893z m-100.971163 92.16l553.912558-345.611907a197.989209 197.989209 0 0 1 26.957396-1.92893c45.079814 0 89.707163 8.97786 133.834418 26.933581L420.673488 566.772093c-18.289116 10.787721-30.862884 17.479442-37.745116 20.098977l-10.763907 3.905488c-28.100465 10.47814-42.174512 29.267349-42.174512 56.391442v4.405581l0.976373 12.264186 1.476465 24.004466c2.28614 44.460651-21.718326 87.587721-72.03721 129.428837-50.342698 42.150698-103.281116 63.226047-158.839069 63.226046-28.100465 0-51.152372-7.144186-69.108093-21.38493-17.979535-14.264558-26.981209-32.386977-26.98121-54.295814 0-28.55293 27.957581-60.344558 83.825117-95.398698l155.386046-96.779907c34.006326-21.194419 50.985674-40.245581 50.985675-57.153488 0-1.976558-0.309581-5.23907-0.952559-9.787535z m159.291535 30.862884l75.490233-45.079814 479.89879 275.479814c-40.197953 16.360186-78.586047 24.528372-115.188093 24.528372-14.693209 0-30.553302-1.333581-47.556465-3.929302L454.036837 576.535814zM106.972279 325.584372l24.028279 11.764093c21.575442 10.144744 39.054884 15.193302 52.46214 15.193302 26.147721 0 39.221581-18.289116 39.221581-54.891162 0-26.790698-12.121302-51.485767-36.292465-74.013768-24.171163-22.551814-50.818977-33.815814-79.895814-33.815814-17.312744 0-32.291721 6.048744-44.841674 18.122419-12.597581 12.097488-18.884465 26.457302-18.884466 43.12707 0 27.790884 21.408744 52.628837 64.202419 74.537674zM206.490791 678.935814l-112.258977 69.727256c-34.292093 21.670698-51.43814 40.555163-51.43814 56.677209 0 13.097674 5.191442 22.980465 15.669582 29.529302 10.454326 6.572651 26.123907 9.858977 47.056372 9.858977 43.103256 0 85.444465-16.812651 126.952186-50.485581 41.507721-33.649116 62.273488-67.965023 62.273488-102.947721 0-23.528186-10.311442-35.292279-30.910511-35.292279-12.40707 0-31.529674 7.644279-57.344 22.932837z m213.730232-138.12093c16.002977 0 24.028279-7.668093 24.028279-23.028093s-8.025302-23.051907-24.028279-23.051907c-15.717209 0-23.528186 7.691907-23.528186 23.051907s7.834791 23.028093 23.528186 23.028093z" fill="#ed734a" p-id="17117"></path></svg>